<?xml version="1.0" encoding="UTF-8"?>
<svg width="221px" height="47px" viewBox="0 0 221 47" version="1.1" xmlns="http://www.w3.org/2000/svg" xmlns:xlink="http://www.w3.org/1999/xlink">
    <!-- Generator: Sketch 60.1 (88133) - https://sketch.com -->
    <title>Group 3</title>
    <desc>Created with Sketch.</desc>
    <g id="Page-1" stroke="none" stroke-width="1" fill="none" fill-rule="evenodd">
        <g id="Artboard" transform="translate(-11.000000, -348.000000)" fill-rule="nonzero">
            <g id="Group-3" transform="translate(11.000000, 347.000000)">
                <g id="Group">
                    <polygon id="Rectangle-2-Copy" fill="#FF530D" transform="translate(30.245347, 30.317196) rotate(45.000000) translate(-30.245347, -30.317196) " points="38.5492336 13.7094224 38.5492336 46.9249701 27.4773844 46.9249701 27.4773844 35.8896213 21.9414598 30.3171963 27.4773844 24.7676292"></polygon>
                    <polygon id="Rectangle-2-Copy-2" fill="#FF0000" transform="translate(16.535925, 32.274441) rotate(-45.000000) translate(-16.535925, -32.274441) " points="11.0000003 15.666667 22.0718496 15.666667 22.0718496 48.8822147 11.0000003 48.8822147"></polygon>
                    <polygon id="Rectangle-2" fill="#E80C7A" transform="translate(16.535925, 16.607775) rotate(45.000000) translate(-16.535925, -16.607775) " points="11 7.3963372e-07 22.0718493 7.3963372e-07 22.0718493 33.2155484 11 33.2155484"></polygon>
                    <polygon id="Rectangle-2-Copy-3" fill="#FF0DFF" transform="translate(32.202591, 16.607774) rotate(135.000000) translate(-32.202591, -16.607774) " points="26.6666668 0 37.738516 11.0696337 37.738516 33.2155477 26.6666668 33.2155477"></polygon>
                </g>
                <path d="M64.0483135,21.24 C67.7483135,21.24 71.0883135,18.86 71.0883135,14.3 C71.0883135,13.94 71.0683135,13.54 70.9883135,13.1 L64.0483135,13.1 L64.0483135,15.44 L68.2683135,15.44 C68.0483135,17.32 66.3883135,18.68 64.0883135,18.68 C61.4883135,18.68 59.6083135,16.72 59.6083135,14 C59.6083135,11.28 61.5283135,9.32 64.1483135,9.32 C66.1283135,9.32 67.3283135,10.3 67.8883135,11.64 L70.8083135,11.64 C70.1683135,8.74 67.4283135,6.76 64.0883135,6.76 C59.9483135,6.76 56.7483135,9.94 56.7483135,14 C56.7483135,18.06 59.9083135,21.24 64.0483135,21.24 Z M77.6709105,21 L78.9509105,17.86 L85.3509105,17.86 L86.6309105,21 L89.4909105,21 L83.4909105,6.98 L80.8509105,6.98 L74.8309105,21 L77.6709105,21 Z M84.3109105,15.34 L79.9709105,15.34 L82.1509105,10.02 L84.3109105,15.34 Z M96.9335075,21 L96.9335075,11.58 L100.913507,18.5 L102.973507,18.5 L106.913507,11.64 L106.913507,21 L109.673507,21 L109.673507,6.98 L107.013507,6.98 L101.973507,15.64 L96.9135075,6.98 L94.1935075,6.98 L94.1935075,21 L96.9335075,21 Z M125.976104,21 L125.976104,18.52 L118.356104,18.52 L118.356104,15.2 L125.376104,15.2 L125.376104,12.72 L118.356104,12.72 L118.356104,9.48 L125.876104,9.48 L125.876104,7 L115.576104,7 L115.576104,21 L125.976104,21 Z M137.978701,21.02 L141.178701,10.94 L144.358701,21.02 L147.198701,21.02 L151.918701,7 L149.118701,7 L145.798701,17.1 L142.558701,7 L139.898701,7 L136.618701,17.04 L133.398701,7 L130.458701,7 L135.178701,21.02 L137.978701,21.02 Z M163.261298,21.24 C167.361298,21.24 170.601298,18.06 170.601298,14 C170.601298,9.94 167.361298,6.76 163.261298,6.76 C159.141298,6.76 155.901298,9.94 155.901298,14 C155.901298,18.06 159.141298,21.24 163.261298,21.24 Z M163.261298,18.64 C160.761298,18.64 158.761298,16.7 158.761298,14 C158.761298,11.3 160.761298,9.36 163.261298,9.36 C165.741298,9.36 167.741298,11.3 167.741298,14 C167.741298,16.7 165.741298,18.64 163.261298,18.64 Z M178.903895,21 L178.903895,16.3 L181.103895,16.3 L184.723895,21 L187.843895,21 L184.063895,16.1 C186.463895,15.54 187.763895,13.84 187.763895,11.64 C187.763895,8.92 185.923895,7 182.423895,7 L176.123895,7 L176.123895,21 L178.903895,21 Z M182.163895,13.84 L178.903895,13.84 L178.903895,9.46 L182.163895,9.46 C183.983895,9.46 184.943895,10.26 184.943895,11.64 C184.943895,13.06 183.983895,13.84 182.163895,13.84 Z M195.966492,21 L195.966492,17.22 L197.946492,15.12 L202.546492,21 L205.906492,21 L199.766492,13.2 L205.606492,7 L202.206492,7 L195.966492,13.66 L195.966492,7 L193.186492,7 L193.186492,21 L195.966492,21 Z M215.04909,21.22 C218.309089,21.22 220.509089,19.76 220.509089,16.9 C220.509089,14.82 219.349089,13.52 216.509089,12.96 L214.92909,12.64 C213.20909,12.32 212.409089,11.88 212.409089,10.86 C212.409089,9.78 213.32909,9.22 214.82909,9.22 C216.26909,9.22 217.229089,9.76 217.409089,10.72 L220.08909,10.72 C219.849089,8.36 218.029089,6.78 214.809089,6.78 C211.48909,6.78 209.629089,8.38 209.629089,10.86 C209.629089,13 210.94909,14.38 213.82909,14.94 L215.38909,15.26 C217.08909,15.58 217.70909,16.14 217.70909,17.06 C217.70909,18.14 216.689089,18.78 215.069089,18.78 C213.26909,18.78 212.20909,18.16 212.069089,17.06 L209.36909,17.06 C209.58909,19.66 211.689089,21.22 215.04909,21.22 Z M102.255989,40.9 C105.297989,40.9 106.917989,39.55 106.917989,37.354 C106.917989,35.86 105.981989,34.69 104.703989,34.456 C105.747989,34.132 106.539989,33.124 106.539989,31.702 C106.539989,29.65 104.955989,28.3 101.985989,28.3 L96.333989,28.3 L96.333989,40.9 L102.255989,40.9 Z M101.787989,33.466 L98.835989,33.466 L98.835989,30.478 L101.859989,30.478 C103.263989,30.478 103.983989,30.892 103.983989,31.918 C103.983989,33.052 103.173989,33.466 101.787989,33.466 Z M102.075989,38.722 L98.835989,38.722 L98.835989,35.662 L102.021989,35.662 C103.605989,35.662 104.343989,36.112 104.343989,37.192 C104.343989,38.29 103.587989,38.722 102.075989,38.722 Z M117.054326,41.116 C120.744326,41.116 123.660326,38.254 123.660326,34.6 C123.660326,30.946 120.744326,28.084 117.054326,28.084 C113.346326,28.084 110.430326,30.946 110.430326,34.6 C110.430326,38.254 113.346326,41.116 117.054326,41.116 Z M117.054326,38.776 C114.804326,38.776 113.004326,37.03 113.004326,34.6 C113.004326,32.17 114.804326,30.424 117.054326,30.424 C119.286326,30.424 121.086326,32.17 121.086326,34.6 C121.086326,37.03 119.286326,38.776 117.054326,38.776 Z M133.148663,41.116 C136.208663,41.116 138.620663,39.352 138.620663,35.752 L138.620663,28.3 L136.136663,28.3 L136.136663,35.464 C136.136663,37.804 134.984663,38.812 133.166663,38.812 C131.348663,38.812 130.196663,37.804 130.196663,35.464 L130.196663,28.3 L127.676663,28.3 L127.676663,35.752 C127.676663,39.352 130.088663,41.116 133.148663,41.116 Z M154.229,40.918 L154.229,28.3 L151.781,28.3 L151.781,36.958 L145.301,28.282 L142.961,28.282 L142.961,40.9 L145.427,40.9 L145.427,32.242 L151.889,40.918 L154.229,40.918 Z M164.113337,40.9 L164.113337,30.568 L168.001337,30.568 L168.001337,28.3 L157.723337,28.3 L157.723337,30.568 L161.611337,30.568 L161.611337,40.9 L164.113337,40.9 Z M178.011674,40.9 L178.011674,36.256 L183.033674,28.3 L180.207674,28.3 L176.769674,33.88 L173.367674,28.3 L170.523674,28.3 L175.527674,36.274 L175.527674,40.9 L178.011674,40.9 Z" id="GAMEWORKSBOUNTY" fill="#F8D253"></path>
            </g>
        </g>
    </g>
</svg>